<svg width="28" height="30" viewBox="0 0 28 30" fill="none" xmlns="http://www.w3.org/2000/svg">
<g clip-path="url(#clip0_2792_2300)" filter="url(#filter0_d_2792_2300)">
<path d="M10 18C8.9 18 8.01 18.9 8.01 20C8.01 21.1 8.9 22 10 22C11.1 22 12 21.1 12 20C12 18.9 11.1 18 10 18ZM4 2V4H6L9.6 11.59L8.25 14.04C8.09 14.32 8 14.65 8 15C8 16.1 8.9 17 10 17H22V15H10.42C10.28 15 10.17 14.89 10.17 14.75L10.2 14.63L11.1 13H18.55C19.3 13 19.96 12.59 20.3 11.97L23.88 5.48C23.96 5.34 24 5.17 24 5C24 4.45 23.55 4 23 4H8.21L7.27 2H4ZM20 18C18.9 18 18.01 18.9 18.01 20C18.01 21.1 18.9 22 20 22C21.1 22 22 21.1 22 20C22 18.9 21.1 18 20 18Z" fill="white"/>
</g>
<defs>
<filter id="filter0_d_2792_2300" x="-1" y="0" width="32" height="32" filterUnits="userSpaceOnUse" color-interpolation-filters="sRGB">
<feFlood flood-opacity="0" result="BackgroundImageFix"/>
<feColorMatrix in="SourceAlpha" type="matrix" values="0 0 0 0 0 0 0 0 0 0 0 0 0 0 0 0 0 0 127 0" result="hardAlpha"/>
<feOffset dy="4"/>
<feGaussianBlur stdDeviation="2"/>
<feComposite in2="hardAlpha" operator="out"/>
<feColorMatrix type="matrix" values="0 0 0 0 0 0 0 0 0 0 0 0 0 0 0 0 0 0 0.25 0"/>
<feBlend mode="normal" in2="BackgroundImageFix" result="effect1_dropShadow_2792_2300"/>
<feBlend mode="normal" in="SourceGraphic" in2="effect1_dropShadow_2792_2300" result="shape"/>
</filter>
<clipPath id="clip0_2792_2300">
<rect width="24" height="24" fill="white" transform="translate(3)"/>
</clipPath>
</defs>
</svg>
