<?xml version="1.0" encoding="UTF-8"?>
<svg xmlns="http://www.w3.org/2000/svg" xmlns:xlink="http://www.w3.org/1999/xlink" width="175px" height="143px" viewBox="0 0 175 143" version="1.1">
<g id="surface1">
<path style=" stroke:none;fill-rule:nonzero;fill:rgb(90.196078%,90.588235%,90.588235%);fill-opacity:1;" d="M 82.628906 4.484375 C 93.644531 4.496094 103.371094 11.683594 106.628906 22.222656 L 114.320312 22.222656 L 124.632812 11.894531 L 133.601562 11.894531 C 134.476562 14.628906 137.394531 16.132812 140.125 15.257812 C 142.851562 14.382812 144.355469 11.457031 143.480469 8.726562 C 142.609375 5.996094 139.6875 4.488281 136.960938 5.363281 C 135.363281 5.875 134.113281 7.128906 133.601562 8.726562 L 123.324219 8.726562 L 112.945312 19.128906 L 110.261719 19.128906 C 104.480469 3.855469 87.429688 -3.835938 72.175781 1.953125 C 68.464844 3.359375 65.074219 5.503906 62.210938 8.253906 L 65.355469 11.40625 C 70.011719 6.960938 76.195312 4.484375 82.628906 4.488281 M 138.542969 7.667969 C 140.011719 7.664062 141.199219 8.855469 141.203125 10.324219 C 141.203125 11.792969 140.015625 12.984375 138.550781 12.988281 C 137.082031 12.988281 135.890625 11.800781 135.890625 10.332031 L 135.890625 10.328125 C 135.890625 8.859375 137.078125 7.667969 138.542969 7.667969 "/>
<path style=" stroke:none;fill-rule:nonzero;fill:rgb(12.54902%,45.882353%,73.72549%);fill-opacity:1;" d="M 138.542969 43.734375 C 136.289062 43.734375 134.292969 45.195312 133.601562 47.339844 L 124.632812 47.339844 L 114.257812 36.957031 L 111.265625 36.957031 C 111.695312 35.28125 111.976562 33.570312 112.105469 31.84375 L 133.59375 31.84375 C 134.4375 34.582031 137.34375 36.117188 140.082031 35.269531 C 142.816406 34.421875 144.351562 31.515625 143.503906 28.773438 C 142.65625 26.03125 139.753906 24.496094 137.015625 25.34375 C 135.378906 25.851562 134.097656 27.132812 133.59375 28.773438 L 112.171875 28.773438 L 112.171875 28.75 L 107.714844 28.75 L 107.714844 29.625 C 107.722656 43.503906 96.496094 54.757812 82.640625 54.765625 C 76.617188 54.769531 70.796875 52.605469 66.238281 48.667969 L 63.085938 51.820312 C 75.316406 62.628906 93.980469 61.460938 104.769531 49.214844 C 107.125 46.539062 108.980469 43.457031 110.242188 40.125 L 112.925781 40.125 L 123.304688 50.515625 L 133.585938 50.515625 C 134.457031 53.246094 137.378906 54.753906 140.105469 53.878906 C 142.835938 53.007812 144.339844 50.082031 143.46875 47.347656 C 142.78125 45.195312 140.78125 43.734375 138.523438 43.734375 M 138.523438 27.652344 C 139.992188 27.652344 141.175781 28.84375 141.175781 30.308594 C 141.175781 31.777344 139.988281 32.964844 138.523438 32.964844 C 137.058594 32.964844 135.871094 31.777344 135.871094 30.308594 C 135.871094 28.84375 137.058594 27.652344 138.523438 27.652344 M 138.523438 51.589844 C 137.054688 51.589844 135.867188 50.398438 135.863281 48.929688 C 135.863281 47.460938 137.050781 46.269531 138.515625 46.269531 C 139.984375 46.265625 141.175781 47.457031 141.175781 48.925781 L 141.175781 48.929688 C 141.175781 50.394531 139.992188 51.585938 138.523438 51.589844 "/>
<path style=" stroke:none;fill-rule:nonzero;fill:rgb(90.196078%,90.588235%,90.588235%);fill-opacity:1;" d="M 96.640625 43.441406 C 104.027344 35.953125 104.222656 23.972656 97.082031 16.246094 L 94.035156 19.296875 C 99.503906 25.328125 99.3125 34.59375 93.59375 40.390625 L 96.640625 43.4375 Z M 96.640625 43.441406 "/>
<path style=" stroke:none;fill-rule:nonzero;fill:rgb(90.196078%,90.588235%,90.588235%);fill-opacity:1;" d="M 82.628906 45.023438 C 77 45.019531 71.824219 41.9375 69.132812 36.984375 L 60.703125 36.984375 L 50.363281 47.339844 L 41.390625 47.339844 C 40.519531 44.609375 37.597656 43.105469 34.871094 43.980469 C 32.140625 44.855469 30.636719 47.777344 31.511719 50.511719 C 32.386719 53.242188 35.304688 54.746094 38.035156 53.871094 C 39.632812 53.359375 40.882812 52.109375 41.390625 50.511719 L 51.675781 50.511719 L 62.054688 40.121094 L 65.984375 40.121094 C 71.757812 49.324219 83.894531 52.097656 93.085938 46.316406 C 93.152344 46.273438 93.21875 46.234375 93.28125 46.191406 L 90.144531 43.050781 C 87.851562 44.34375 85.265625 45.023438 82.632812 45.019531 M 36.457031 51.582031 C 34.988281 51.582031 33.800781 50.390625 33.800781 48.921875 C 33.800781 47.453125 34.988281 46.261719 36.457031 46.261719 C 37.921875 46.261719 39.113281 47.453125 39.113281 48.921875 C 39.109375 50.390625 37.921875 51.582031 36.457031 51.582031 "/>
<path style=" stroke:none;fill-rule:nonzero;fill:rgb(12.54902%,45.882353%,73.72549%);fill-opacity:1;" d="M 41.40625 28.769531 C 40.5625 26.03125 37.65625 24.496094 34.917969 25.34375 C 32.183594 26.191406 30.648438 29.097656 31.496094 31.839844 C 32.34375 34.582031 35.246094 36.117188 37.984375 35.269531 C 39.621094 34.761719 40.902344 33.480469 41.40625 31.839844 L 67.425781 31.839844 C 67.320312 31.109375 67.269531 30.375 67.265625 29.636719 C 67.257812 21.136719 74.132812 14.242188 82.621094 14.234375 C 85.480469 14.230469 88.285156 15.027344 90.714844 16.53125 L 93.824219 13.421875 C 84.902344 7.230469 72.65625 9.449219 66.472656 18.382812 C 66.304688 18.628906 66.140625 18.875 65.984375 19.125 L 62.054688 19.125 L 51.675781 8.734375 L 41.390625 8.734375 C 40.519531 6.003906 37.597656 4.5 34.871094 5.375 C 32.140625 6.25 30.636719 9.171875 31.511719 11.90625 C 32.386719 14.636719 35.304688 16.140625 38.035156 15.265625 C 39.632812 14.753906 40.882812 13.503906 41.390625 11.90625 L 50.363281 11.90625 L 60.742188 22.289062 L 64.363281 22.289062 C 63.535156 24.351562 63.0625 26.546875 62.96875 28.769531 Z M 36.453125 32.960938 C 34.984375 32.960938 33.800781 31.769531 33.800781 30.300781 C 33.804688 28.832031 34.996094 27.648438 36.460938 27.648438 C 37.921875 27.652344 39.109375 28.839844 39.109375 30.304688 C 39.105469 31.773438 37.917969 32.960938 36.453125 32.960938 M 36.453125 12.980469 C 34.984375 12.980469 33.796875 11.789062 33.796875 10.320312 C 33.796875 8.851562 34.984375 7.660156 36.453125 7.660156 C 37.917969 7.660156 39.109375 8.851562 39.109375 10.320312 C 39.109375 10.320312 39.109375 10.320312 39.109375 10.324219 C 39.105469 11.789062 37.917969 12.980469 36.453125 12.980469 "/>
<path style=" stroke:none;fill-rule:nonzero;fill:rgb(12.54902%,45.882353%,73.72549%);fill-opacity:1;" d="M 89.625 25.703125 C 89.625 21.773438 86.449219 18.589844 82.527344 18.585938 C 78.605469 18.585938 75.425781 21.769531 75.421875 25.695312 C 75.421875 27.898438 76.441406 29.976562 78.183594 31.328125 L 75.421875 37.769531 L 89.625 37.769531 L 86.867188 31.328125 C 88.609375 29.980469 89.628906 27.902344 89.625 25.703125 "/>
<path style=" stroke:none;fill-rule:nonzero;fill:rgb(90.196078%,90.588235%,90.588235%);fill-opacity:1;" d="M 0 93.875 C 0 87.519531 5.34375 82.140625 11.675781 82.140625 C 14.605469 82.183594 17.207031 83.34375 19.558594 85.605469 L 16.949219 89.183594 C 15.414062 87.671875 13.574219 86.757812 11.632812 86.757812 C 8.023438 86.757812 4.574219 89.972656 4.574219 93.910156 C 4.574219 97.851562 8.148438 101.019531 11.621094 101.019531 C 13.695312 101.019531 15.472656 99.914062 16.964844 98.453125 L 19.558594 102.117188 C 17.578125 104.085938 15.164062 105.578125 11.761719 105.578125 C 5.277344 105.554688 0.00390625 100.207031 0.00390625 93.875 Z M 0 93.875 "/>
<path style=" stroke:none;fill-rule:nonzero;fill:rgb(90.196078%,90.588235%,90.588235%);fill-opacity:1;" d="M 27.402344 95.453125 L 20.4375 82.601562 L 25.546875 82.601562 L 29.648438 90.425781 L 33.746094 82.601562 L 38.871094 82.601562 L 31.894531 95.453125 L 31.894531 105.121094 L 27.402344 105.121094 Z M 27.402344 95.453125 "/>
<path style=" stroke:none;fill-rule:nonzero;fill:rgb(90.196078%,90.588235%,90.588235%);fill-opacity:1;" d="M 56.628906 98.304688 C 56.628906 101.632812 54.246094 105.136719 49.609375 105.136719 L 41.117188 105.136719 L 41.117188 82.628906 L 47.253906 82.628906 C 51.242188 82.628906 53.78125 85.5625 53.78125 88.59375 C 53.78125 90.984375 52.207031 92.464844 51.664062 92.464844 C 53.828125 92.4375 56.628906 94.667969 56.628906 98.304688 Z M 45.621094 87.019531 L 45.621094 91.402344 L 47.449219 91.402344 C 48.648438 91.367188 49.59375 90.367188 49.570312 89.167969 C 49.601562 88.007812 48.691406 87.039062 47.53125 87 Z M 52.222656 97.960938 C 52.222656 96.65625 51.324219 95.359375 49.179688 95.359375 L 45.621094 95.359375 L 45.621094 100.703125 L 49.195312 100.703125 C 50.660156 100.703125 52.222656 99.6875 52.222656 97.960938 Z M 52.222656 97.960938 "/>
<path style=" stroke:none;fill-rule:nonzero;fill:rgb(90.196078%,90.588235%,90.588235%);fill-opacity:1;" d="M 63.691406 87.058594 L 63.691406 91.460938 L 71.449219 91.460938 L 71.449219 95.960938 L 63.691406 95.960938 L 63.691406 100.621094 L 72.730469 100.621094 L 72.730469 105.121094 L 59.171875 105.121094 L 59.171875 82.613281 L 72.730469 82.613281 L 72.730469 87.054688 L 63.691406 87.054688 Z M 63.691406 87.058594 "/>
<path style=" stroke:none;fill-rule:nonzero;fill:rgb(90.196078%,90.588235%,90.588235%);fill-opacity:1;" d="M 87.746094 105.121094 L 80.589844 94.476562 L 80.589844 105.121094 L 76.066406 105.121094 L 76.066406 82.613281 L 83.40625 82.613281 C 87.605469 82.613281 91.050781 85.851562 91.050781 89.90625 C 91.050781 92.796875 89.320312 95.324219 86.902344 96.175781 L 93.292969 105.132812 Z M 80.574219 92.742188 L 83.480469 92.742188 C 85.042969 92.742188 86.3125 91.472656 86.3125 89.910156 C 86.3125 88.34375 85.042969 87.074219 83.480469 87.074219 L 80.574219 87.074219 L 80.574219 92.746094 Z M 80.574219 92.742188 "/>
<path style=" stroke:none;fill-rule:nonzero;fill:rgb(90.196078%,90.588235%,90.588235%);fill-opacity:1;" d="M 125.386719 94.378906 C 125.386719 101.445312 120.519531 105.566406 114.667969 105.566406 C 108.207031 105.714844 102.851562 100.59375 102.707031 94.125 C 102.558594 87.65625 107.675781 82.292969 114.132812 82.144531 C 114.253906 82.140625 114.375 82.140625 114.496094 82.144531 C 117.582031 82.25 120.515625 83.503906 122.722656 85.660156 L 120.210938 89.417969 C 118.453125 87.6875 116.441406 86.726562 114.433594 86.726562 C 110.539062 86.8125 107.425781 89.992188 107.417969 93.894531 C 107.417969 97.804688 110.460938 101.015625 114.851562 101.015625 C 118.058594 101.015625 120.363281 99.367188 120.515625 96.65625 L 114.699219 96.65625 L 114.699219 92.480469 L 125.273438 92.480469 C 125.34375 93.113281 125.382812 93.746094 125.386719 94.382812 Z M 125.386719 94.378906 "/>
<path style=" stroke:none;fill-rule:nonzero;fill:rgb(90.196078%,90.588235%,90.588235%);fill-opacity:1;" d="M 139.925781 101.976562 L 130.933594 101.976562 L 129.5 105.121094 L 124.605469 105.121094 L 135.34375 82.03125 L 135.488281 82.03125 L 146.238281 105.109375 L 141.34375 105.109375 Z M 138.164062 98.121094 L 135.429688 92.097656 L 132.683594 98.121094 Z M 138.164062 98.121094 "/>
<path style=" stroke:none;fill-rule:nonzero;fill:rgb(90.196078%,90.588235%,90.588235%);fill-opacity:1;" d="M 148.484375 82.601562 L 153.007812 82.601562 L 153.007812 105.109375 L 148.484375 105.109375 Z M 148.484375 82.601562 "/>
<path style=" stroke:none;fill-rule:nonzero;fill:rgb(90.196078%,90.588235%,90.588235%);fill-opacity:1;" d="M 175 82.546875 L 175 105.539062 L 174.789062 105.539062 L 161.4375 92.53125 L 161.4375 105.144531 L 156.917969 105.144531 L 156.917969 82.183594 L 157.128906 82.183594 L 170.449219 95.160156 L 170.449219 82.546875 Z M 175 82.546875 "/>
<path style=" stroke:none;fill-rule:nonzero;fill:rgb(12.54902%,45.882353%,73.72549%);fill-opacity:1;" d="M 30.441406 135.699219 C 30.484375 131.699219 33.703125 128.457031 37.699219 128.390625 C 39.527344 128.414062 41.160156 129.140625 42.609375 130.558594 L 40.988281 132.777344 C 40.128906 131.855469 38.9375 131.3125 37.675781 131.261719 C 35.226562 131.261719 33.242188 133.253906 33.242188 135.707031 C 33.242188 138.160156 35.226562 140.148438 37.675781 140.148438 C 38.964844 140.148438 40.074219 139.457031 41.007812 138.550781 L 42.621094 140.828125 C 41.386719 142.058594 39.886719 142.976562 37.78125 142.976562 C 33.757812 142.972656 30.484375 139.730469 30.441406 135.703125 Z M 30.441406 135.699219 "/>
<path style=" stroke:none;fill-rule:nonzero;fill:rgb(12.54902%,45.882353%,73.72549%);fill-opacity:1;" d="M 55.898438 131.453125 L 55.898438 134.195312 L 60.738281 134.195312 L 60.738281 137.003906 L 55.898438 137.003906 L 55.898438 139.902344 L 61.542969 139.902344 L 61.542969 142.707031 L 53.085938 142.707031 L 53.085938 128.679688 L 61.542969 128.679688 L 61.542969 131.449219 L 55.898438 131.457031 Z M 55.898438 131.453125 "/>
<path style=" stroke:none;fill-rule:nonzero;fill:rgb(12.54902%,45.882353%,73.72549%);fill-opacity:1;" d="M 83.757812 128.644531 L 83.757812 142.964844 L 83.628906 142.964844 L 75.328125 134.867188 L 75.328125 142.722656 L 72.515625 142.722656 L 72.515625 128.417969 L 72.652344 128.417969 L 80.949219 136.503906 L 80.949219 128.644531 Z M 83.757812 128.644531 "/>
<path style=" stroke:none;fill-rule:nonzero;fill:rgb(12.54902%,45.882353%,73.72549%);fill-opacity:1;" d="M 103.9375 131.472656 L 100.476562 131.472656 L 100.476562 142.707031 L 97.652344 142.707031 L 97.652344 131.472656 L 94.191406 131.472656 L 94.191406 128.679688 L 103.933594 128.679688 L 103.933594 131.472656 Z M 103.9375 131.472656 "/>
<path style=" stroke:none;fill-rule:nonzero;fill:rgb(12.54902%,45.882353%,73.72549%);fill-opacity:1;" d="M 117.230469 131.453125 L 117.230469 134.195312 L 122.070312 134.195312 L 122.070312 137.003906 L 117.230469 137.003906 L 117.230469 139.902344 L 122.863281 139.902344 L 122.863281 142.707031 L 114.414062 142.707031 L 114.414062 128.679688 L 122.863281 128.679688 L 122.863281 131.449219 L 117.230469 131.457031 Z M 117.230469 131.453125 "/>
<path style=" stroke:none;fill-rule:nonzero;fill:rgb(12.54902%,45.882353%,73.72549%);fill-opacity:1;" d="M 141.109375 142.707031 L 136.652344 136.074219 L 136.652344 142.707031 L 133.839844 142.707031 L 133.839844 128.679688 L 138.410156 128.679688 C 141.023438 128.679688 143.171875 130.699219 143.171875 133.222656 C 143.207031 134.9375 142.175781 136.496094 140.582031 137.128906 L 144.558594 142.707031 Z M 136.644531 134.992188 L 138.453125 134.992188 C 139.425781 134.992188 140.214844 134.207031 140.214844 133.230469 C 140.214844 132.253906 139.429688 131.460938 138.453125 131.460938 L 136.644531 131.460938 Z M 136.644531 134.992188 "/>
</g>
</svg>
