<svg width="24" height="24" viewBox="0 0 24 24" fill="none" xmlns="http://www.w3.org/2000/svg">
<path d="M21.97 12C21.97 14.94 20.69 17.6 18.65 19.41C16.89 21.01 14.56 21.97 12 21.97C6.50003 21.97 2.03003 17.5 2.03003 12C2.03003 6.5 6.50003 2.03 12 2.03C14.56 2.03 16.89 2.99 18.65 4.59C20.69 6.4 21.97 9.06 21.97 12Z" stroke="#E5E5E6" stroke-width="1.5" stroke-linecap="round" stroke-linejoin="round"/>
<path d="M18 12C18 13.7693 17.2297 15.3701 16.002 16.4594C14.9428 17.4223 13.5406 18 12 18C8.69007 18 6 15.3099 6 12C6 8.69007 8.69007 6 12 6C13.5406 6 14.9428 6.57773 16.002 7.54062C17.2297 8.62989 18 10.2307 18 12Z" fill="#E5E5E6"/>
</svg>
