<svg width="44" height="42" viewBox="0 0 44 42" fill="none" xmlns="http://www.w3.org/2000/svg">
<path opacity="0.5" d="M34.6806 34.4739C34.3398 34.4739 33.999 34.3531 33.73 34.0943C33.2098 33.594 33.2098 32.7659 33.73 32.2655C40.205 26.0373 40.205 15.9101 33.73 9.69921C33.2098 9.19888 33.2098 8.37076 33.73 7.87043C34.2501 7.37011 35.1111 7.37011 35.6312 7.87043C43.1466 15.0993 43.1466 26.8655 35.6312 34.0943C35.3622 34.3531 35.0214 34.4739 34.6806 34.4739Z" fill="white"/>
<path opacity="0.5" d="M9.3196 34.4739C8.97881 34.4739 8.63802 34.3531 8.36897 34.0943C0.853572 26.8655 0.853572 15.0993 8.36897 7.87043C8.88913 7.37011 9.75008 7.37011 10.2702 7.87043C10.7904 8.37076 10.7904 9.19888 10.2702 9.69921C3.79516 15.9274 3.79516 26.0546 10.2702 32.2655C10.7904 32.7659 10.7904 33.594 10.2702 34.0943C10.0012 34.3531 9.6604 34.4739 9.3196 34.4739Z" fill="white"/>
<path opacity="0.5" d="M22 39.46C19.758 39.4428 17.6235 39.0976 15.6326 38.4248C14.9331 38.1833 14.5563 37.4415 14.8075 36.7686C15.0586 36.0958 15.8119 35.7334 16.5294 35.975C18.2513 36.5443 20.0808 36.8549 22.018 36.8549C23.9372 36.8549 25.7846 36.5443 27.4886 35.975C28.1881 35.7507 28.9594 36.0958 29.2105 36.7686C29.4616 37.4415 29.0849 38.1833 28.3854 38.4248C26.3765 39.0976 24.2421 39.46 22 39.46Z" fill="white"/>
<path opacity="0.5" d="M27.9194 6.04171C27.7759 6.04171 27.6144 6.02439 27.471 5.97263C25.7491 5.4033 23.9016 5.09274 21.9824 5.09274C20.0632 5.09274 18.2337 5.4033 16.5118 5.97263C15.8123 6.19692 15.041 5.85193 14.7899 5.17908C14.5388 4.50623 14.9154 3.76433 15.6149 3.52279C17.6059 2.84994 19.7583 2.50484 21.9824 2.50484C24.2065 2.50484 26.3589 2.84994 28.3499 3.52279C29.0494 3.76433 29.4261 4.50623 29.1749 5.17908C28.9956 5.71391 28.4754 6.04171 27.9194 6.04171Z" fill="white"/>
<path d="M16.1533 20.9825V18.1013C16.1533 14.5128 18.79 13.0463 22.0186 14.8405L24.6194 16.2898L27.2202 17.739C30.4487 19.5332 30.4487 22.4662 27.2202 24.2605L24.6194 25.7096L22.0186 27.1589C18.79 28.9532 16.1533 27.4867 16.1533 23.8981V20.9825Z" fill="white"/>
</svg>
